# xmcd
# 
# Track frame offsets:
#     150
#     51032
#     118593
#     156390
#     185214
#     223220
#     251646
# 
# Disc length: 3493
# 
# Revision: 2
# Processed by: cddbd v1.5.2PL0 Copyright (c) Steve Scherf et al.
# Submitted via: fre:ac v1.0.17
# 
DISCID=6b0da307
DTITLE=Joel Harrison 7 - Search
DYEAR=2010
DGENRE=Contemporary Jazz
TTITLE0=Grass Valley and Beyond
TTITLE1=A Magnificent Death
TTITLE2=All The Previous Pages Are Gone
TTITLE3=The Beauty of Failure
TTITLE4=Whipping Post
TTITLE5=O Sacrum Convivium
TTITLE6=Search
EXTD=
EXTT0=
EXTT1=
EXTT2=
EXTT3=
EXTT4=
EXTT5=
EXTT6=
PLAYORDER=
